<svg xmlns="http://www.w3.org/2000/svg" width="18" height="18" viewBox="0 0 18 18" fill="none">
<path d="M9 1.6875C7.55373 1.6875 6.13993 2.11637 4.9374 2.91988C3.73486 3.72339 2.7976 4.86544 2.24413 6.20163C1.69067 7.53781 1.54586 9.00811 1.82801 10.4266C2.11017 11.8451 2.80661 13.148 3.82928 14.1707C4.85196 15.1934 6.15492 15.8898 7.57341 16.172C8.99189 16.4541 10.4622 16.3093 11.7984 15.7559C13.1346 15.2024 14.2766 14.2651 15.0801 13.0626C15.8836 11.8601 16.3125 10.4463 16.3125 9C16.3105 7.06123 15.5394 5.20246 14.1685 3.83154C12.7975 2.46063 10.9388 1.68955 9 1.6875ZM9.5625 15.1615V12.9375C9.5625 12.7883 9.50324 12.6452 9.39775 12.5398C9.29226 12.4343 9.14919 12.375 9 12.375C8.85082 12.375 8.70774 12.4343 8.60226 12.5398C8.49677 12.6452 8.4375 12.7883 8.4375 12.9375V15.1615C6.99758 15.0282 5.64962 14.3955 4.62708 13.3729C3.60455 12.3504 2.97183 11.0024 2.83852 9.5625H5.0625C5.21169 9.5625 5.35476 9.50324 5.46025 9.39775C5.56574 9.29226 5.625 9.14918 5.625 9C5.625 8.85082 5.56574 8.70774 5.46025 8.60225C5.35476 8.49676 5.21169 8.4375 5.0625 8.4375H2.83852C2.97183 6.99757 3.60455 5.64962 4.62708 4.62708C5.64962 3.60455 6.99758 2.97183 8.4375 2.83852V5.0625C8.4375 5.21168 8.49677 5.35476 8.60226 5.46025C8.70774 5.56574 8.85082 5.625 9 5.625C9.14919 5.625 9.29226 5.56574 9.39775 5.46025C9.50324 5.35476 9.5625 5.21168 9.5625 5.0625V2.83852C11.0024 2.97183 12.3504 3.60455 13.3729 4.62708C14.3955 5.64962 15.0282 6.99757 15.1615 8.4375H12.9375C12.7883 8.4375 12.6452 8.49676 12.5398 8.60225C12.4343 8.70774 12.375 8.85082 12.375 9C12.375 9.14918 12.4343 9.29226 12.5398 9.39775C12.6452 9.50324 12.7883 9.5625 12.9375 9.5625H15.1615C15.0282 11.0024 14.3955 12.3504 13.3729 13.3729C12.3504 14.3955 11.0024 15.0282 9.5625 15.1615Z" fill="white"/>
</svg>