<svg width="16" height="16" viewBox="0 0 16 16" fill="none" xmlns="http://www.w3.org/2000/svg">
<g id="Icon">
<path id="Vector" d="M7.99961 10.8829C9.06628 10.0052 9.86628 9.1635 10.3996 8.35794C10.9329 7.55239 11.1996 6.80183 11.1996 6.10628C11.1996 5.14317 10.9024 4.35128 10.3079 3.73061C9.7135 3.10994 8.94405 2.79961 7.99961 2.79961C7.05516 2.79961 6.28572 3.11072 5.69128 3.73294C5.09683 4.35516 4.79961 5.14372 4.79961 6.09861C4.79961 6.78816 5.06628 7.53294 5.59961 8.33294C6.13294 9.13294 6.93294 9.98294 7.99961 10.8829ZM7.99961 12.3996C6.51072 11.2774 5.40516 10.1962 4.68294 9.15611C3.96072 8.11611 3.59961 7.09728 3.59961 6.09961C3.59961 4.78839 4.00828 3.71061 4.82561 2.86628C5.64294 2.02183 6.70128 1.59961 8.00061 1.59961C9.29994 1.59961 10.3579 2.02183 11.1746 2.86628C11.9913 3.71061 12.3996 4.78839 12.3996 6.09961C12.3996 7.09728 12.0385 8.11611 11.3163 9.15611C10.5941 10.1962 9.4885 11.2774 7.99961 12.3996ZM8.00311 7.19961C8.33411 7.19961 8.61628 7.08178 8.84961 6.84611C9.08294 6.61044 9.19961 6.32711 9.19961 5.99611C9.19961 5.66511 9.08178 5.38294 8.84611 5.14961C8.61044 4.91628 8.32711 4.79961 7.99611 4.79961C7.66511 4.79961 7.38294 4.91744 7.14961 5.15311C6.91628 5.38878 6.79961 5.67211 6.79961 6.00311C6.79961 6.33411 6.91744 6.61628 7.15311 6.84961C7.38878 7.08294 7.67211 7.19961 8.00311 7.19961ZM3.59961 14.3996V13.1996H12.3996V14.3996H3.59961Z" fill="#E8EAED"/>
</g>
</svg>
