<svg width="25" height="24" viewBox="0 0 25 24" fill="none" xmlns="http://www.w3.org/2000/svg">
<path d="M6.25 22C5.28333 22 4.45833 21.6583 3.775 20.975C3.09167 20.2917 2.75 19.4667 2.75 18.5C2.75 17.5333 3.09167 16.7083 3.775 16.025C4.45833 15.3417 5.28333 15 6.25 15C6.55 15 6.84167 15.0375 7.125 15.1125C7.40833 15.1875 7.675 15.2917 7.925 15.425L11.75 11.6V8.85C11.0167 8.63333 10.4167 8.22083 9.95 7.6125C9.48333 7.00417 9.25 6.3 9.25 5.5C9.25 4.53333 9.59167 3.70833 10.275 3.025C10.9583 2.34167 11.7833 2 12.75 2C13.7167 2 14.5417 2.34167 15.225 3.025C15.9083 3.70833 16.25 4.53333 16.25 5.5C16.25 6.3 16.0167 7.00417 15.55 7.6125C15.0833 8.22083 14.4833 8.63333 13.75 8.85V11.6L17.6 15.425C17.85 15.2917 18.1125 15.1875 18.3875 15.1125C18.6625 15.0375 18.95 15 19.25 15C20.2167 15 21.0417 15.3417 21.725 16.025C22.4083 16.7083 22.75 17.5333 22.75 18.5C22.75 19.4667 22.4083 20.2917 21.725 20.975C21.0417 21.6583 20.2167 22 19.25 22C18.2833 22 17.4583 21.6583 16.775 20.975C16.0917 20.2917 15.75 19.4667 15.75 18.5C15.75 18.2 15.7875 17.9083 15.8625 17.625C15.9375 17.3417 16.0417 17.075 16.175 16.825L12.75 13.4L9.325 16.825C9.45833 17.075 9.5625 17.3417 9.6375 17.625C9.7125 17.9083 9.75 18.2 9.75 18.5C9.75 19.4667 9.40833 20.2917 8.725 20.975C8.04167 21.6583 7.21667 22 6.25 22ZM19.25 20C19.6667 20 20.0208 19.8542 20.3125 19.5625C20.6042 19.2708 20.75 18.9167 20.75 18.5C20.75 18.0833 20.6042 17.7292 20.3125 17.4375C20.0208 17.1458 19.6667 17 19.25 17C18.8333 17 18.4792 17.1458 18.1875 17.4375C17.8958 17.7292 17.75 18.0833 17.75 18.5C17.75 18.9167 17.8958 19.2708 18.1875 19.5625C18.4792 19.8542 18.8333 20 19.25 20ZM12.75 7C13.1667 7 13.5208 6.85417 13.8125 6.5625C14.1042 6.27083 14.25 5.91667 14.25 5.5C14.25 5.08333 14.1042 4.72917 13.8125 4.4375C13.5208 4.14583 13.1667 4 12.75 4C12.3333 4 11.9792 4.14583 11.6875 4.4375C11.3958 4.72917 11.25 5.08333 11.25 5.5C11.25 5.91667 11.3958 6.27083 11.6875 6.5625C11.9792 6.85417 12.3333 7 12.75 7ZM6.25 20C6.66667 20 7.02083 19.8542 7.3125 19.5625C7.60417 19.2708 7.75 18.9167 7.75 18.5C7.75 18.0833 7.60417 17.7292 7.3125 17.4375C7.02083 17.1458 6.66667 17 6.25 17C5.83333 17 5.47917 17.1458 5.1875 17.4375C4.89583 17.7292 4.75 18.0833 4.75 18.5C4.75 18.9167 4.89583 19.2708 5.1875 19.5625C5.47917 19.8542 5.83333 20 6.25 20Z" fill="white"/>
</svg>
