<svg width="25" height="24" viewBox="0 0 25 24" fill="none" xmlns="http://www.w3.org/2000/svg">
<mask id="mask0_2370_9930" style="mask-type:alpha" maskUnits="userSpaceOnUse" x="0" y="0" width="25" height="24">
<rect x="0.75" width="24" height="24" fill="#D9D9D9"/>
</mask>
<g mask="url(#mask0_2370_9930)">
<path d="M12.75 18L6.29999 20.75C6.08332 20.8333 5.87916 20.8542 5.68749 20.8125C5.49582 20.7708 5.33332 20.6833 5.19999 20.55C5.06666 20.4167 4.97916 20.25 4.93749 20.05C4.89582 19.85 4.91666 19.6417 4.99999 19.425L11.825 4.05C11.9083 3.85 12.0375 3.7 12.2125 3.6C12.3875 3.5 12.5667 3.45 12.75 3.45C12.9333 3.45 13.1125 3.5 13.2875 3.6C13.4625 3.7 13.5917 3.85 13.675 4.05L20.5 19.425C20.5833 19.6417 20.6042 19.85 20.5625 20.05C20.5208 20.25 20.4333 20.4167 20.3 20.55C20.1667 20.6833 20.0042 20.7708 19.8125 20.8125C19.6208 20.8542 19.4167 20.8333 19.2 20.75L12.75 18ZM7.84999 17.9L12.75 15.8L17.65 17.9L12.75 6.9L7.84999 17.9Z" fill="white"/>
</g>
</svg>
