<svg width="25" height="24" viewBox="0 0 25 24" fill="none" xmlns="http://www.w3.org/2000/svg">
<mask id="mask0_2370_10036" style="mask-type:alpha" maskUnits="userSpaceOnUse" x="0" y="0" width="25" height="24">
<rect x="0.75" width="24" height="24" fill="#D9D9D9"/>
</mask>
<g mask="url(#mask0_2370_10036)">
<path d="M12.675 21.5C11.3622 21.5 10.1279 21.2503 8.97224 20.751C7.8164 20.2517 6.8109 19.5744 5.95574 18.7193C5.10057 17.8641 4.42332 16.8586 3.92399 15.7028C3.42465 14.5471 3.17499 13.3128 3.17499 12C3.17499 10.6872 3.42465 9.45292 3.92399 8.29725C4.42332 7.14142 5.10057 6.13592 5.95574 5.28075C6.8109 4.42558 7.8164 3.74833 8.97224 3.249C10.1279 2.74967 11.3622 2.5 12.675 2.5C13.9878 2.5 15.2221 2.74967 16.3777 3.249C17.5336 3.74833 18.5391 4.42558 19.3942 5.28075C20.2494 6.13592 20.9267 7.14142 21.426 8.29725C21.9253 9.45292 22.175 10.6872 22.175 12C22.175 13.3128 21.9253 14.5471 21.426 15.7028C20.9267 16.8586 20.2494 17.8641 19.3942 18.7193C18.5391 19.5744 17.5336 20.2517 16.3777 20.751C15.2221 21.2503 13.9878 21.5 12.675 21.5ZM14.498 19.7712C15.984 19.4456 17.2654 18.7443 18.3422 17.6673C19.4192 16.5904 20.1206 15.309 20.4462 13.823L14.498 19.7712ZM4.91924 10.102L10.777 4.24425C9.30765 4.57625 8.04707 5.26825 6.99524 6.32025C5.94324 7.37208 5.25124 8.63267 4.91924 10.102ZM5.01149 14.3193L14.9942 4.352C14.7046 4.257 14.4068 4.18483 14.101 4.1355C13.7952 4.08617 13.4827 4.05125 13.1635 4.03075L4.70574 12.4885C4.72624 12.8077 4.76024 13.1202 4.80774 13.426C4.85507 13.7318 4.92299 14.0296 5.01149 14.3193ZM6.51349 17.0922L17.7672 5.8135C17.5762 5.64933 17.3731 5.49642 17.1577 5.35475C16.9422 5.21308 16.7178 5.08133 16.4845 4.9595L5.63449 15.8095C5.75632 16.0428 5.88965 16.2673 6.03449 16.4827C6.17949 16.6981 6.33915 16.9012 6.51349 17.0922ZM8.86549 19.0405L19.7 8.18075C19.5782 7.94742 19.4448 7.72467 19.3 7.5125C19.1552 7.30033 19.0007 7.09875 18.8365 6.90775L7.58274 18.1865C7.77374 18.3507 7.9769 18.5036 8.19224 18.6453C8.40774 18.7869 8.63215 18.9187 8.86549 19.0405ZM12.1865 19.9693L20.6442 11.5115C20.6237 11.1923 20.5888 10.8798 20.5395 10.574C20.4902 10.2682 20.418 9.97042 20.323 9.68075L10.3557 19.648C10.6454 19.743 10.9432 19.8152 11.249 19.8645C11.5548 19.9138 11.8673 19.9488 12.1865 19.9693Z" fill="white"/>
</g>
</svg>
