<svg width="126" height="30" viewBox="0 0 126 30" fill="none" xmlns="http://www.w3.org/2000/svg">
<g clip-path="url(#clip0_80_4754)">
<path d="M36 22.5085V20.5801C36.8587 20.8133 37.8455 21.0024 38.922 21.0024C41.8184 21.0024 43.0103 19.3072 43.0103 17.2403V7H45.2147V17.6121C45.2147 20.9078 43.036 23 39.2553 23C38.1082 23 36.8843 22.7857 36 22.5085Z" fill="black"/>
<path d="M48.3931 16.7424V7H50.5974V16.5975C50.5974 19.1182 52.4173 20.9267 55.0253 20.9267C57.6334 20.9267 59.4532 19.1119 59.4532 16.5975V7H61.6576V16.7424C61.6576 20.4352 58.9086 23 55.0317 23C51.1549 23 48.4059 20.4352 48.4059 16.7424H48.3931Z" fill="black"/>
<path d="M77.8313 12.3879C77.8313 15.5892 75.5565 17.82 71.9937 17.82H67.2069V22.7353H65.0282V7H72.1603C75.5309 7 77.8313 9.2371 77.8313 12.3879ZM71.8014 15.9673C74.0955 15.9673 75.6078 14.4612 75.6078 12.4132C75.6078 10.3651 74.1467 8.88421 71.9232 8.88421H67.2069V15.9673H71.8014Z" fill="black"/>
<path d="M80.1061 7H82.3104V22.7416H80.1061V7Z" fill="black"/>
<path d="M89.6026 8.88421H84.3417V7H97.0487V8.88421H91.807V22.7416H89.6026V8.88421Z" fill="black"/>
<path d="M123.366 22.7416L119.489 17.3789H115.401V22.7416H113.222V7H120.451C123.635 7 125.904 9.16778 125.904 12.1548C125.904 14.7889 124.231 16.6227 121.79 17.1205L126 22.7416H123.366ZM115.401 8.859V15.5388H119.9C122.149 15.5388 123.706 14.2911 123.706 12.243C123.706 10.195 122.245 8.8527 120.092 8.8527H115.401V8.859Z" fill="black"/>
<path d="M101.259 8.88421H110.301V7H99.1058V8.88421H101.259Z" fill="#4782BD"/>
<path d="M101.259 20.8575V15.728H109.993V13.8501H101.259V13.8438H99.1057V22.7417H110.563V20.8575H101.259Z" fill="black"/>
</g>
<path d="M19.143 25.9912C10.8671 25.9912 4.15314 19.2777 4.15314 10.9912C4.15314 7.79431 5.15213 4.83592 6.85598 2.40527C2.73327 5.07442 0 9.71752 0 15C0 23.2815 6.70893 30 14.9899 30C20.0761 30 24.5639 27.4628 27.2769 23.591C24.9341 25.1083 22.145 25.9912 19.143 25.9912Z" fill="#0069AE"/>
<path d="M5.43104 20.6174C5.43104 12.3359 12.14 5.61739 20.4209 5.61739C23.2302 5.61739 25.857 6.39378 28.1035 7.7385C25.5477 3.12585 20.6339 0 14.9899 0C6.70893 0 0 6.71347 0 15C0 20.4753 2.93103 25.2605 7.3073 27.8789C6.11562 25.7273 5.43104 23.251 5.43104 20.6174Z" fill="#29ABE0"/>
<path d="M15.0102 0C14.0416 0 13.0933 0.0964141 12.1704 0.274019C19.0923 1.60352 24.3205 7.68776 24.3205 15C24.3205 22.3123 19.0923 28.3965 12.1704 29.726C13.0883 29.9036 14.0365 30 15.0102 30C23.286 30 30 23.2865 30 15C30 6.71347 23.2911 0 15.0102 0Z" fill="#0BB290"/>
<path d="M19.5486 25.9762C17.5304 27.8588 14.9949 29.1883 12.1754 29.7262C12.8651 29.8581 13.5699 29.9444 14.29 29.9799C14.2951 29.9799 14.3002 29.9799 14.3052 29.9799C14.5334 29.9901 14.7667 29.9951 15 29.9951C15.3042 29.9951 15.6034 29.985 15.8975 29.9647C15.9432 29.9647 15.9837 29.9596 16.0294 29.9545C16.2931 29.9342 16.5568 29.9139 16.8154 29.8835C16.8509 29.8835 16.8914 29.8733 16.9269 29.8683C21.2069 29.3152 24.9188 26.9555 27.2768 23.5811C25.0405 25.0323 22.3935 25.895 19.5486 25.9711V25.9762Z" fill="#008F9D"/>
<path d="M17.0841 0.147158C17.0841 0.147158 17.0486 0.147158 17.0334 0.142084C16.7393 0.101489 16.4351 0.071042 16.1359 0.0507443C16.0801 0.0507443 16.0294 0.0405954 15.9736 0.0405954C15.649 0.0152233 15.3245 0 15 0C14.7667 0 14.5334 0.00507443 14.3052 0.0152233C14.3052 0.0152233 14.2951 0.0152233 14.29 0.0152233C13.5699 0.0507443 12.8651 0.137009 12.1754 0.268945C15.7454 0.953992 18.859 2.90765 21.0446 5.63769C23.6207 5.74425 26.0294 6.49019 28.1085 7.7385C25.8722 3.70433 21.8357 0.811908 17.0841 0.147158Z" fill="#06A2A3"/>
<path d="M0.0506337 16.187C0.0658467 16.4103 0.0912016 16.6336 0.116557 16.8518C0.126699 16.9431 0.136841 17.0294 0.152054 17.1207C0.192622 17.3947 0.238261 17.6688 0.28897 17.9428C0.28897 17.9631 0.294041 17.9834 0.299112 18.0037C0.359964 18.298 0.430958 18.5872 0.507023 18.8714C0.527307 18.9475 0.547591 19.0236 0.572946 19.0998C0.633798 19.318 0.699721 19.5311 0.770715 19.7442C0.79607 19.8203 0.821425 19.9015 0.851851 19.9776C0.943129 20.2313 1.03441 20.4851 1.1409 20.7337C1.15104 20.754 1.15611 20.7794 1.16625 20.7997C1.28289 21.0737 1.40459 21.3426 1.53644 21.6116C1.56179 21.6674 1.59222 21.7232 1.62264 21.779C1.72913 21.9922 1.84069 22.2002 1.9624 22.4083C1.9979 22.4692 2.03339 22.5301 2.06889 22.591C2.20581 22.8244 2.35287 23.0578 2.49992 23.2862C2.51007 23.3014 2.52021 23.3166 2.53035 23.3318C2.69769 23.5855 2.87518 23.8291 3.05773 24.0727C3.08309 24.1031 3.10844 24.1336 3.12873 24.164C3.28593 24.367 3.4482 24.57 3.62061 24.7679C3.65611 24.8136 3.69668 24.8541 3.73218 24.8998C3.9198 25.1129 4.10743 25.3159 4.3052 25.5189C4.31534 25.529 4.32041 25.5341 4.33055 25.5443C4.54861 25.7625 4.77173 25.9807 5.005 26.1836C5.02021 26.1938 5.03035 26.2039 5.04556 26.2192C5.25347 26.4069 5.47153 26.5845 5.68958 26.7571C5.72508 26.7875 5.76565 26.818 5.80114 26.8484C6.02427 27.0209 6.25246 27.1935 6.48573 27.3558C6.49587 27.3609 6.50601 27.3711 6.51615 27.3761C6.77477 27.5537 7.03847 27.7263 7.3123 27.8887C6.12062 25.7371 5.4411 23.2608 5.4411 20.6272C5.4411 19.6173 5.54252 18.6329 5.73015 17.684C4.72609 15.6694 4.15814 13.4012 4.15814 11.001C4.15814 7.80408 5.15713 4.84569 6.86098 2.41504C6.09019 2.91233 5.37011 3.48067 4.70581 4.1099C4.70074 4.11497 4.69567 4.12005 4.69059 4.12512C4.47254 4.33317 4.26463 4.54122 4.05672 4.75942H4.05165C3.63583 5.21105 3.25043 5.67789 2.89039 6.17011C2.88532 6.18026 2.87518 6.19041 2.87011 6.20056C2.70783 6.42384 2.55063 6.65218 2.40358 6.88053C2.37822 6.91606 2.35794 6.95665 2.33258 6.99217C2.19059 7.22052 2.05368 7.44887 1.92183 7.68229C1.91169 7.70259 1.89648 7.72796 1.88633 7.74826C1.60236 8.26078 1.34881 8.78852 1.12568 9.33656C1.10033 9.39745 1.07497 9.46342 1.04962 9.52431C0.968484 9.73236 0.892419 9.94549 0.816354 10.1586C0.790999 10.2297 0.765644 10.3007 0.74536 10.3768C0.669295 10.6153 0.598301 10.8538 0.532378 11.0974C0.522236 11.1329 0.512094 11.1735 0.501952 11.209C0.425887 11.4932 0.365035 11.7774 0.304183 12.0666C0.28897 12.1326 0.278828 12.2036 0.268686 12.2696C0.228118 12.4878 0.192622 12.711 0.162196 12.9343C0.146983 13.0307 0.136841 13.1221 0.126699 13.2185C0.101344 13.4265 0.0810596 13.6397 0.0658467 13.8477C0.0607757 13.9391 0.0506337 14.0253 0.0455627 14.1167C0.0303497 14.411 0.0151367 14.7104 0.0151367 15.0098C0.0151367 15.3092 0.0252787 15.6238 0.0455627 15.9282C0.0506337 16.0196 0.0607757 16.1058 0.0658467 16.1972L0.0506337 16.187Z" fill="#4982C3"/>
<defs>
<clipPath id="clip0_80_4754">
<rect width="90" height="16" fill="white" transform="translate(36 7)"/>
</clipPath>
</defs>
</svg>
