<svg width="44" height="44" viewBox="0 0 44 44" fill="none" xmlns="http://www.w3.org/2000/svg">
<path d="M25 22C25 20.6193 23.8807 19.5 22.5 19.5C21.1193 19.5 20 20.6193 20 22C20 23.3807 21.1193 24.5 22.5 24.5C23.8807 24.5 25 23.3807 25 22ZM26 22C26 23.933 24.433 25.5 22.5 25.5C20.567 25.5 19 23.933 19 22C19 20.067 20.567 18.5 22.5 18.5C24.433 18.5 26 20.067 26 22Z" fill="#D10000"/>
<path d="M25 30C25 28.6193 23.8807 27.5 22.5 27.5C21.1193 27.5 20 28.6193 20 30C20 31.3807 21.1193 32.5 22.5 32.5C23.8807 32.5 25 31.3807 25 30ZM26 30C26 31.933 24.433 33.5 22.5 33.5C20.567 33.5 19 31.933 19 30C19 28.067 20.567 26.5 22.5 26.5C24.433 26.5 26 28.067 26 30Z" fill="#D10000"/>
<path d="M27.0869 35.5687V36.7354H17.7539V35.5687H27.0869ZM27.2539 35.4696V21.8102C27.2537 18.0942 25.4256 14.6296 22.4199 12.7344C19.5128 14.5677 17.7078 17.8696 17.5928 21.4468L17.5869 21.8102V35.4696C17.5869 35.4724 17.5872 35.4745 17.5889 35.4787C17.591 35.4841 17.5966 35.4955 17.6094 35.5094C17.6357 35.538 17.6846 35.5687 17.7539 35.5687V36.7354L17.6348 36.7285C17.0854 36.6681 16.6484 36.1942 16.5928 35.5983L16.5869 35.4696V21.8102C16.5871 17.4372 18.8376 13.4299 22.4199 11.4242C26.0024 13.4299 28.2537 17.4371 28.2539 21.8102V35.4696L28.2471 35.5983C28.1914 36.1942 27.7553 36.6681 27.2061 36.7285L27.0869 36.7354V35.5687C27.1561 35.5687 27.2042 35.5379 27.2305 35.5094C27.2434 35.4955 27.2498 35.4841 27.252 35.4787C27.2535 35.4746 27.2539 35.4725 27.2539 35.4696Z" fill="#D10000"/>
<path d="M22.4199 12.7344C25.4256 14.6296 27.2537 18.0946 27.2539 21.8105V35.4697C27.2539 35.4725 27.2534 35.4746 27.252 35.4785C27.2498 35.484 27.2434 35.4958 27.2305 35.5098C27.2041 35.5382 27.156 35.5684 27.0869 35.5684H17.7539C17.6848 35.5683 17.6358 35.5383 17.6094 35.5098C17.5966 35.4959 17.591 35.4839 17.5889 35.4785C17.5873 35.4745 17.5869 35.4725 17.5869 35.4697V21.8105L17.5928 21.4473C17.7078 17.8701 19.5128 14.5677 22.4199 12.7344ZM28.0166 36.2314C28.0039 36.2497 27.9911 36.2677 27.9775 36.2852C27.9911 36.2677 28.0039 36.2497 28.0166 36.2314ZM22.5 26.5C20.567 26.5 19 28.067 19 30C19 31.933 20.567 33.5 22.5 33.5C24.433 33.5 26 31.933 26 30C26 28.067 24.433 26.5 22.5 26.5ZM22.5 27.5C23.8807 27.5 25 28.6193 25 30C25 31.3807 23.8807 32.5 22.5 32.5C21.1193 32.5 20 31.3807 20 30C20 28.6193 21.1193 27.5 22.5 27.5ZM22.5 18.5C20.567 18.5 19 20.067 19 22C19 23.933 20.567 25.5 22.5 25.5C24.433 25.5 26 23.933 26 22C26 20.067 24.433 18.5 22.5 18.5ZM22.5 19.5C23.8807 19.5 25 20.6193 25 22C25 23.3807 23.8807 24.5 22.5 24.5C21.1193 24.5 20 23.3807 20 22C20 20.6193 21.1193 19.5 22.5 19.5Z" fill="#EFD6D6"/>
<path d="M28.2542 21.8101C28.2541 17.4369 26.0034 13.4296 22.4208 11.4238C18.8383 13.4296 16.5876 17.4369 16.5875 21.8101V35.469C16.5875 36.1679 17.1099 36.7344 17.7542 36.7346H27.0875C27.7318 36.7346 28.2542 36.168 28.2542 35.469V21.8101ZM29.4208 35.469C29.4208 36.8669 28.3762 38.0001 27.0875 38.0001H17.7542C16.5463 37.9999 15.5527 37.0039 15.4334 35.7273L15.4208 35.469V21.8101C15.421 16.9636 17.9151 12.5221 21.8854 10.2992L22.4208 10.0001L22.9563 10.2992C26.9265 12.5222 29.4207 16.9635 29.4208 21.8101V35.469Z" fill="black"/>
</svg>
