<svg width="44" height="44" viewBox="0 0 44 44" fill="none" xmlns="http://www.w3.org/2000/svg">
<path d="M25 23.5C25 22.1193 23.8807 21 22.5 21C21.1193 21 20 22.1193 20 23.5C20 24.8807 21.1193 26 22.5 26C23.8807 26 25 24.8807 25 23.5ZM26 23.5C26 25.433 24.433 27 22.5 27C20.567 27 19 25.433 19 23.5C19 21.567 20.567 20 22.5 20C24.433 20 26 21.567 26 23.5Z" fill="#D10000"/>
<path d="M27.0869 31.916V32.916H17.7539V31.916H27.0869ZM27.2539 31.8311V20.1231C27.2537 16.938 25.4256 13.9682 22.4199 12.3438C19.5128 13.9152 17.7078 16.7454 17.5928 19.8116L17.5869 20.1231V31.8311C17.5869 31.8336 17.5872 31.8353 17.5889 31.8389C17.591 31.8435 17.5966 31.8533 17.6094 31.8653C17.6357 31.8898 17.6846 31.916 17.7539 31.916V32.916L17.6348 32.9102C17.0854 32.8584 16.6484 32.4522 16.5928 31.9414L16.5869 31.8311V20.1231C16.5871 16.3748 18.8376 12.94 22.4199 11.2207C26.0024 12.9399 28.2537 16.3747 28.2539 20.1231V31.8311L28.2471 31.9414C28.1914 32.4522 27.7553 32.8584 27.2061 32.9102L27.0869 32.916V31.916C27.1561 31.916 27.2042 31.8897 27.2305 31.8653C27.2434 31.8533 27.2498 31.8436 27.252 31.8389C27.2535 31.8354 27.2539 31.8336 27.2539 31.8311Z" fill="#D10000"/>
<path d="M22.4199 12.3438C25.4256 13.9682 27.2537 16.938 27.2539 20.1231V31.8311C27.2539 31.8336 27.2535 31.8355 27.2519 31.8389C27.2498 31.8436 27.2433 31.8533 27.2304 31.8653C27.2041 31.8897 27.1561 31.9161 27.0869 31.9161H17.7539C17.6846 31.916 17.6357 31.8898 17.6094 31.8653C17.5966 31.8534 17.591 31.8435 17.5888 31.8389C17.5872 31.8353 17.5869 31.8336 17.5869 31.8311V20.1231L17.5928 19.8116C17.7078 16.7454 19.5128 13.9152 22.4199 12.3438ZM27.8291 32.668C27.8181 32.6764 27.8062 32.6834 27.7949 32.6915C27.8099 32.6807 27.8254 32.6706 27.8398 32.6592L27.8291 32.668ZM17.001 32.6592C17.0117 32.6677 17.023 32.6755 17.0342 32.6836C17.0268 32.6783 17.0189 32.6736 17.0117 32.668L17.001 32.6592ZM28.2539 31.8311C28.2539 31.8887 28.2466 31.9449 28.2373 32C28.2406 31.9806 28.2449 31.9612 28.247 31.9415L28.2539 31.8311ZM22.5 20C20.567 20.0001 19 21.5671 19 23.5C19 25.433 20.567 27 22.5 27C24.433 27 26 25.433 26 23.5C26 21.567 24.433 20 22.5 20ZM22.5 21C23.8807 21 25 22.1193 25 23.5C25 24.8807 23.8807 26 22.5 26C21.1193 26 20 24.8807 20 23.5C20 22.1193 21.1193 21.0001 22.5 21Z" fill="#EFD6D6"/>
<path d="M28.2542 20.1229C28.2541 16.3745 26.0034 12.9396 22.4209 11.2204C18.8384 12.9396 16.5877 16.3745 16.5875 20.1229V31.8306C16.5875 32.4296 17.11 32.9152 17.7542 32.9153H27.0875C27.7319 32.9153 28.2542 32.4296 28.2542 31.8306V20.1229ZM29.4209 31.8306C29.4209 33.0287 28.3762 34 27.0875 34H17.7542C16.5464 33.9999 15.5527 33.1462 15.4334 32.052L15.4209 31.8306V20.1229C15.421 15.9687 17.9152 12.1618 21.8854 10.2564L22.4209 10L22.9564 10.2564C26.9266 12.1618 29.4208 15.9687 29.4209 20.1229V31.8306Z" fill="black"/>
</svg>
