<svg width="29" height="35" viewBox="0 0 29 35" fill="none" xmlns="http://www.w3.org/2000/svg">
    <path fill-rule="evenodd" clip-rule="evenodd" d="M14.4296 34.0708C14.4296 34.0708 27.8591 25.0322 27.8591 14.4871C27.8591 10.8913 26.4442 7.44282 23.9257 4.90022C21.4072 2.35762 17.9913 0.929199 14.4296 0.929199C10.8678 0.929199 7.45196 2.35762 4.93343 4.90022C2.4149 7.44282 1 10.8913 1 14.4871C1 25.0322 14.4296 34.0708 14.4296 34.0708ZM18.906 14.4871C18.906 16.983 16.9018 19.0064 14.4294 19.0064C11.9571 19.0064 9.95292 16.983 9.95292 14.4871C9.95292 11.9911 11.9571 9.96778 14.4294 9.96778C16.9018 9.96778 18.906 11.9911 18.906 14.4871Z" fill="#121212"/>
    <path d="M14.4296 34.0708L14.1983 34.4144C14.3381 34.5086 14.521 34.5086 14.6609 34.4144L14.4296 34.0708ZM27.4449 14.4871C27.4449 19.5946 24.1829 24.39 20.8423 27.9498C19.1802 29.721 17.5167 31.1673 16.2684 32.1708C15.6445 32.6724 15.1251 33.0627 14.7626 33.327C14.5813 33.4592 14.4392 33.5599 14.343 33.6272C14.2949 33.6608 14.2582 33.6861 14.2338 33.7029C14.2216 33.7112 14.2125 33.7174 14.2065 33.7215C14.2035 33.7235 14.2014 33.725 14.2 33.7259C14.1993 33.7264 14.1988 33.7267 14.1985 33.7269C14.1984 33.727 14.1983 33.7271 14.1982 33.7271C14.1982 33.7271 14.1983 33.7271 14.4296 34.0708C14.6609 34.4144 14.661 34.4143 14.6612 34.4142C14.6613 34.4141 14.6616 34.414 14.6619 34.4138C14.6624 34.4134 14.6631 34.4129 14.6641 34.4123C14.6659 34.411 14.6686 34.4092 14.6721 34.4069C14.679 34.4021 14.6892 34.3952 14.7024 34.3862C14.7288 34.3681 14.7675 34.3413 14.8178 34.3062C14.9183 34.2359 15.0647 34.1321 15.2507 33.9965C15.6225 33.7254 16.1523 33.3272 16.7875 32.8166C18.0572 31.7959 19.7511 30.3234 21.4464 28.5168C24.8206 24.9211 28.2734 19.9247 28.2734 14.4871H27.4449ZM23.6314 5.19176C26.0727 7.65637 27.4449 10.9999 27.4449 14.4871H28.2734C28.2734 10.7827 26.8158 7.22927 24.22 4.60868L23.6314 5.19176ZM14.4296 1.34347C17.8802 1.34347 21.1902 2.72727 23.6314 5.19176L24.22 4.60868C21.6241 1.98796 18.1025 0.51493 14.4296 0.51493V1.34347ZM5.22775 5.19176C7.6689 2.72727 10.979 1.34347 14.4296 1.34347V0.51493C10.7567 0.51493 7.23502 1.98796 4.63911 4.60868L5.22775 5.19176ZM1.41427 14.4871C1.41427 10.9999 2.78647 7.65637 5.22775 5.19176L4.63911 4.60868C2.04333 7.22927 0.58573 10.7827 0.58573 14.4871H1.41427ZM14.4296 34.0708C14.6609 33.7271 14.6609 33.7271 14.6609 33.7271C14.6608 33.7271 14.6608 33.727 14.6606 33.7269C14.6603 33.7267 14.6599 33.7264 14.6592 33.7259C14.6578 33.725 14.6556 33.7235 14.6526 33.7215C14.6466 33.7174 14.6375 33.7112 14.6253 33.7029C14.6009 33.6861 14.5643 33.6608 14.5161 33.6272C14.4199 33.5599 14.2779 33.4592 14.0966 33.327C13.734 33.0627 13.2146 32.6724 12.5908 32.1708C11.3424 31.1673 9.67894 29.721 8.01687 27.9498C4.67627 24.39 1.41427 19.5946 1.41427 14.4871H0.58573C0.58573 19.9247 4.03852 24.9211 7.41269 28.5168C9.10802 30.3234 10.802 31.7959 12.0716 32.8166C12.7068 33.3272 13.2366 33.7254 13.6084 33.9965C13.7944 34.1321 13.9409 34.2359 14.0414 34.3062C14.0916 34.3413 14.1303 34.3681 14.1568 34.3862C14.17 34.3952 14.1801 34.4021 14.1871 34.4069C14.1905 34.4092 14.1932 34.411 14.1951 34.4123C14.196 34.4129 14.1968 34.4134 14.1973 34.4138C14.1975 34.414 14.1978 34.4141 14.1979 34.4142C14.1981 34.4143 14.1983 34.4144 14.4296 34.0708ZM14.4294 19.4207C17.1343 19.4207 19.3202 17.2081 19.3202 14.4871H18.4917C18.4917 16.758 16.6693 18.5921 14.4294 18.5921V19.4207ZM9.53865 14.4871C9.53865 17.2081 11.7246 19.4207 14.4294 19.4207V18.5921C12.1896 18.5921 10.3672 16.758 10.3672 14.4871H9.53865ZM14.4294 9.55351C11.7246 9.55351 9.53865 11.7661 9.53865 14.4871H10.3672C10.3672 12.2162 12.1896 10.382 14.4294 10.382V9.55351ZM19.3202 14.4871C19.3202 11.7661 17.1343 9.55351 14.4294 9.55351V10.382C16.6693 10.382 18.4917 12.2162 18.4917 14.4871H19.3202Z" fill="white"/>
</svg>
